<?xml version="1.0" encoding="UTF-8" standalone="no"?>
<!DOCTYPE svg PUBLIC "-//W3C//DTD SVG 1.1//EN"
 "http://www.w3.org/Graphics/SVG/1.1/DTD/svg11.dtd">
<!-- Generated by graphviz version 2.43.0 (0)
 -->
<!-- Title: %3 Pages: 1 -->
<svg width="638pt" height="318pt"
 viewBox="0.00 0.00 637.97 318.00" xmlns="http://www.w3.org/2000/svg" xmlns:xlink="http://www.w3.org/1999/xlink">
<g id="graph0" class="graph" transform="scale(1 1) rotate(0) translate(4 314)">
<title>%3</title>
<polygon fill="white" stroke="transparent" points="-4,4 -4,-314 633.97,-314 633.97,4 -4,4"/>
<!-- github.com/godepsresolve/corelib -->
<g id="node1" class="node">
<title>github.com/godepsresolve/corelib</title>
<path fill="#6536ff" stroke="black" d="M437.97,-36C437.97,-36 204.97,-36 204.97,-36 198.97,-36 192.97,-30 192.97,-24 192.97,-24 192.97,-12 192.97,-12 192.97,-6 198.97,0 204.97,0 204.97,0 437.97,0 437.97,0 443.97,0 449.97,-6 449.97,-12 449.97,-12 449.97,-24 449.97,-24 449.97,-30 443.97,-36 437.97,-36"/>
<text text-anchor="start" x="200.97" y="-19.8" font-family="Times,serif" font-size="14.00" fill="#ffffff">github.com/godepsresolve/corelib</text>
<text text-anchor="start" x="305.97" y="-9" font-family="Times,serif" font-size="10.00" fill="#ffffff">v1.2.0</text>
</g>
<!-- github.com/godepsresolve/helperlib -->
<g id="node2" class="node">
<title>github.com/godepsresolve/helperlib</title>
<path fill="#1fff8e" stroke="black" d="M445.47,-119C445.47,-119 197.47,-119 197.47,-119 191.47,-119 185.47,-113 185.47,-107 185.47,-107 185.47,-95 185.47,-95 185.47,-89 191.47,-83 197.47,-83 197.47,-83 445.47,-83 445.47,-83 451.47,-83 457.47,-89 457.47,-95 457.47,-95 457.47,-107 457.47,-107 457.47,-113 451.47,-119 445.47,-119"/>
<text text-anchor="start" x="193.47" y="-102.8" font-family="Times,serif" font-size="14.00" fill="#000000">github.com/godepsresolve/helperlib</text>
<text text-anchor="start" x="305.97" y="-92" font-family="Times,serif" font-size="10.00" fill="#000000">v1.0.0</text>
</g>
<!-- github.com/godepsresolve/helperlib&#45;&gt;github.com/godepsresolve/corelib -->
<g id="edge1" class="edge">
<title>github.com/godepsresolve/helperlib&#45;&gt;github.com/godepsresolve/corelib</title>
<path fill="none" stroke="black" d="M321.47,-82.82C321.47,-72.19 321.47,-58.31 321.47,-46.2"/>
<polygon fill="black" stroke="black" points="324.97,-46.15 321.47,-36.15 317.97,-46.15 324.97,-46.15"/>
<text text-anchor="start" x="321.47" y="-57" font-family="Times,serif" font-size="10.00">v1.0.0</text>
</g>
<!-- github.com/godepsresolve/mainservice -->
<g id="node3" class="node">
<title>github.com/godepsresolve/mainservice</title>
<path fill="#9f39ff" stroke="black" d="M414.97,-310C414.97,-310 143.97,-310 143.97,-310 137.97,-310 131.97,-304 131.97,-298 131.97,-298 131.97,-286 131.97,-286 131.97,-280 137.97,-274 143.97,-274 143.97,-274 414.97,-274 414.97,-274 420.97,-274 426.97,-280 426.97,-286 426.97,-286 426.97,-298 426.97,-298 426.97,-304 420.97,-310 414.97,-310"/>
<text text-anchor="middle" x="279.47" y="-288.3" font-family="Times,serif" font-size="14.00" fill="#ffffff">github.com/godepsresolve/mainservice</text>
</g>
<!-- github.com/godepsresolve/mainservice&#45;&gt;github.com/godepsresolve/corelib -->
<g id="edge2" class="edge">
<title>github.com/godepsresolve/mainservice&#45;&gt;github.com/godepsresolve/corelib</title>
<path fill="none" stroke="black" d="M175.49,-273.99C116.33,-258.4 46.94,-228.82 10.47,-173 -19.46,-127.19 20.93,-98.32 60.47,-60.5"/>
<path fill="none" stroke="black" d="M60.47,-58.5C78.16,-40.12 129.83,-30.26 182.57,-24.98"/>
<polygon fill="black" stroke="black" points="183.14,-28.44 192.77,-24.02 182.48,-21.47 183.14,-28.44"/>
<text text-anchor="start" x="10.47" y="-152.5" font-family="Times,serif" font-size="10.00">v1.2.0</text>
</g>
<!-- github.com/godepsresolve/mainservice&#45;&gt;github.com/godepsresolve/helperlib -->
<g id="edge3" class="edge">
<title>github.com/godepsresolve/mainservice&#45;&gt;github.com/godepsresolve/helperlib</title>
<path fill="none" stroke="black" d="M283.27,-273.89C290.58,-241.02 306.63,-168.76 315.43,-129.2"/>
<polygon fill="black" stroke="black" points="318.89,-129.72 317.65,-119.2 312.06,-128.21 318.89,-129.72"/>
<text text-anchor="start" x="300.47" y="-206.5" font-family="Times,serif" font-size="10.00">v1.0.0</text>
</g>
<!-- github.com/godepsresolve/plugin -->
<g id="node4" class="node">
<title>github.com/godepsresolve/plugin</title>
<path fill="#ff0c00" stroke="black" d="M292.47,-173C292.47,-173 62.47,-173 62.47,-173 56.47,-173 50.47,-167 50.47,-161 50.47,-161 50.47,-149 50.47,-149 50.47,-143 56.47,-137 62.47,-137 62.47,-137 292.47,-137 292.47,-137 298.47,-137 304.47,-143 304.47,-149 304.47,-149 304.47,-161 304.47,-161 304.47,-167 298.47,-173 292.47,-173"/>
<text text-anchor="start" x="58.47" y="-156.8" font-family="Times,serif" font-size="14.00" fill="#ffffff">github.com/godepsresolve/plugin</text>
<text text-anchor="start" x="161.97" y="-146" font-family="Times,serif" font-size="10.00" fill="#ffffff">v1.0.0</text>
</g>
<!-- github.com/godepsresolve/mainservice&#45;&gt;github.com/godepsresolve/plugin -->
<g id="edge4" class="edge">
<title>github.com/godepsresolve/mainservice&#45;&gt;github.com/godepsresolve/plugin</title>
<path fill="none" stroke="black" d="M266.55,-273.9C248.94,-250.6 217.27,-208.67 196.82,-181.61"/>
<polygon fill="black" stroke="black" points="199.43,-179.25 190.61,-173.39 193.84,-183.47 199.43,-179.25"/>
<text text-anchor="start" x="251.47" y="-248" font-family="Times,serif" font-size="10.00">v1.0.0</text>
</g>
<!-- github.com/godepsresolve/wraplib -->
<g id="node5" class="node">
<title>github.com/godepsresolve/wraplib</title>
<path fill="#9138ff" stroke="black" d="M617.97,-227C617.97,-227 378.97,-227 378.97,-227 372.97,-227 366.97,-221 366.97,-215 366.97,-215 366.97,-203 366.97,-203 366.97,-197 372.97,-191 378.97,-191 378.97,-191 617.97,-191 617.97,-191 623.97,-191 629.97,-197 629.97,-203 629.97,-203 629.97,-215 629.97,-215 629.97,-221 623.97,-227 617.97,-227"/>
<text text-anchor="start" x="374.97" y="-210.8" font-family="Times,serif" font-size="14.00" fill="#ffffff">github.com/godepsresolve/wraplib</text>
<text text-anchor="start" x="482.97" y="-200" font-family="Times,serif" font-size="10.00" fill="#ffffff">v1.0.0</text>
</g>
<!-- github.com/godepsresolve/mainservice&#45;&gt;github.com/godepsresolve/wraplib -->
<g id="edge5" class="edge">
<title>github.com/godepsresolve/mainservice&#45;&gt;github.com/godepsresolve/wraplib</title>
<path fill="none" stroke="black" d="M325.65,-273.92C359.86,-261.27 406.64,-243.96 442.9,-230.55"/>
<polygon fill="black" stroke="black" points="444.19,-233.81 452.36,-227.06 441.76,-227.24 444.19,-233.81"/>
<text text-anchor="start" x="401.47" y="-248" font-family="Times,serif" font-size="10.00">v1.0.0</text>
</g>
<!-- github.com/godepsresolve/plugin&#45;&gt;github.com/godepsresolve/corelib -->
<g id="edge6" class="edge">
<title>github.com/godepsresolve/plugin&#45;&gt;github.com/godepsresolve/corelib</title>
<path fill="none" stroke="black" d="M131.99,-136.99C85.53,-117.62 24.91,-85.42 60.47,-60.5"/>
<text text-anchor="start" x="89.47" y="-98.5" font-family="Times,serif" font-size="10.00">v1.2.0</text>
</g>
<!-- github.com/godepsresolve/wraplib&#45;&gt;github.com/godepsresolve/corelib -->
<g id="edge7" class="edge">
<title>github.com/godepsresolve/wraplib&#45;&gt;github.com/godepsresolve/corelib</title>
<path fill="none" stroke="black" d="M498.61,-190.93C497.94,-164.71 492.97,-114.28 466.47,-83 449.75,-63.26 425.75,-49.39 402.08,-39.74"/>
<polygon fill="black" stroke="black" points="403.27,-36.45 392.68,-36.11 400.75,-42.98 403.27,-36.45"/>
<text text-anchor="start" x="485.47" y="-98.5" font-family="Times,serif" font-size="10.00">v1.1.0</text>
</g>
<!-- github.com/godepsresolve/wraplib&#45;&gt;github.com/godepsresolve/helperlib -->
<g id="edge8" class="edge">
<title>github.com/godepsresolve/wraplib&#45;&gt;github.com/godepsresolve/helperlib</title>
<path fill="none" stroke="black" d="M470.03,-190.97C439.93,-172.94 392.27,-144.4 359.08,-124.53"/>
<polygon fill="black" stroke="black" points="360.51,-121.3 350.13,-119.16 356.91,-127.3 360.51,-121.3"/>
<text text-anchor="start" x="435.47" y="-152.5" font-family="Times,serif" font-size="10.00">v1.0.0</text>
</g>
</g>
</svg>
