<?xml version="1.0" encoding="UTF-8" standalone="no"?>
<!DOCTYPE svg PUBLIC "-//W3C//DTD SVG 1.1//EN"
 "http://www.w3.org/Graphics/SVG/1.1/DTD/svg11.dtd">
<!-- Generated by graphviz version 2.43.0 (0)
 -->
<!-- Title: %3 Pages: 1 -->
<svg width="638pt" height="324pt"
 viewBox="0.00 0.00 637.95 324.00" xmlns="http://www.w3.org/2000/svg" xmlns:xlink="http://www.w3.org/1999/xlink">
<g id="graph0" class="graph" transform="scale(1 1) rotate(0) translate(4 320)">
<title>%3</title>
<polygon fill="white" stroke="transparent" points="-4,4 -4,-320 633.95,-320 633.95,4 -4,4"/>
<!-- github.com/godepsresolve/corelib -->
<g id="node1" class="node">
<title>github.com/godepsresolve/corelib</title>
<path fill="#6536ff" stroke="black" d="M437.95,-42C437.95,-42 204.95,-42 204.95,-42 198.95,-42 192.95,-36 192.95,-30 192.95,-30 192.95,-12 192.95,-12 192.95,-6 198.95,0 204.95,0 204.95,0 437.95,0 437.95,0 443.95,0 449.95,-6 449.95,-12 449.95,-12 449.95,-30 449.95,-30 449.95,-36 443.95,-42 437.95,-42"/>
<text text-anchor="start" x="200.95" y="-27.8" font-family="Times,serif" font-size="14.00" fill="#ffffff">github.com/godepsresolve/corelib</text>
<text text-anchor="start" x="221.95" y="-17" font-family="Times,serif" font-size="10.00" fill="#ffffff">github.com/godepsresolve/corelib_fork</text>
<text text-anchor="start" x="305.95" y="-7" font-family="Times,serif" font-size="10.00" fill="#ffffff">v1.4.0</text>
</g>
<!-- github.com/godepsresolve/helperlib -->
<g id="node2" class="node">
<title>github.com/godepsresolve/helperlib</title>
<path fill="#1fff8e" stroke="black" d="M445.45,-125C445.45,-125 197.45,-125 197.45,-125 191.45,-125 185.45,-119 185.45,-113 185.45,-113 185.45,-101 185.45,-101 185.45,-95 191.45,-89 197.45,-89 197.45,-89 445.45,-89 445.45,-89 451.45,-89 457.45,-95 457.45,-101 457.45,-101 457.45,-113 457.45,-113 457.45,-119 451.45,-125 445.45,-125"/>
<text text-anchor="start" x="193.45" y="-108.8" font-family="Times,serif" font-size="14.00" fill="#000000">github.com/godepsresolve/helperlib</text>
<text text-anchor="start" x="305.95" y="-98" font-family="Times,serif" font-size="10.00" fill="#000000">v1.0.0</text>
</g>
<!-- github.com/godepsresolve/helperlib&#45;&gt;github.com/godepsresolve/corelib -->
<g id="edge1" class="edge">
<title>github.com/godepsresolve/helperlib&#45;&gt;github.com/godepsresolve/corelib</title>
<path fill="none" stroke="black" d="M321.45,-88.6C321.45,-78.11 321.45,-64.48 321.45,-52.28"/>
<polygon fill="black" stroke="black" points="324.95,-52.04 321.45,-42.04 317.95,-52.04 324.95,-52.04"/>
<text text-anchor="start" x="321.45" y="-63" font-family="Times,serif" font-size="10.00">v1.0.0</text>
</g>
<!-- github.com/godepsresolve/mainservice_replace_fork -->
<g id="node3" class="node">
<title>github.com/godepsresolve/mainservice_replace_fork</title>
<path fill="#ff41e6" stroke="black" d="M461.95,-316C461.95,-316 96.95,-316 96.95,-316 90.95,-316 84.95,-310 84.95,-304 84.95,-304 84.95,-292 84.95,-292 84.95,-286 90.95,-280 96.95,-280 96.95,-280 461.95,-280 461.95,-280 467.95,-280 473.95,-286 473.95,-292 473.95,-292 473.95,-304 473.95,-304 473.95,-310 467.95,-316 461.95,-316"/>
<text text-anchor="middle" x="279.45" y="-294.3" font-family="Times,serif" font-size="14.00" fill="#000000">github.com/godepsresolve/mainservice_replace_fork</text>
</g>
<!-- github.com/godepsresolve/mainservice_replace_fork&#45;&gt;github.com/godepsresolve/corelib -->
<g id="edge2" class="edge">
<title>github.com/godepsresolve/mainservice_replace_fork&#45;&gt;github.com/godepsresolve/corelib</title>
<path fill="none" stroke="black" d="M175.47,-279.99C116.31,-264.4 46.92,-234.82 10.45,-179 -19.48,-133.19 21.12,-104.54 60.45,-66.5"/>
<path fill="none" stroke="black" d="M60.45,-64.5C78.07,-45.99 129.72,-35.55 182.48,-29.65"/>
<polygon fill="black" stroke="black" points="183.11,-33.1 192.68,-28.56 182.37,-26.14 183.11,-33.1"/>
<text text-anchor="start" x="10.45" y="-158.5" font-family="Times,serif" font-size="10.00">v1.2.0</text>
</g>
<!-- github.com/godepsresolve/mainservice_replace_fork&#45;&gt;github.com/godepsresolve/helperlib -->
<g id="edge3" class="edge">
<title>github.com/godepsresolve/mainservice_replace_fork&#45;&gt;github.com/godepsresolve/helperlib</title>
<path fill="none" stroke="black" d="M283.25,-279.89C290.56,-247.02 306.61,-174.76 315.4,-135.2"/>
<polygon fill="black" stroke="black" points="318.87,-135.72 317.63,-125.2 312.04,-134.21 318.87,-135.72"/>
<text text-anchor="start" x="300.45" y="-212.5" font-family="Times,serif" font-size="10.00">v1.0.0</text>
</g>
<!-- github.com/godepsresolve/plugin -->
<g id="node4" class="node">
<title>github.com/godepsresolve/plugin</title>
<path fill="#ff0c00" stroke="black" d="M292.45,-179C292.45,-179 62.45,-179 62.45,-179 56.45,-179 50.45,-173 50.45,-167 50.45,-167 50.45,-155 50.45,-155 50.45,-149 56.45,-143 62.45,-143 62.45,-143 292.45,-143 292.45,-143 298.45,-143 304.45,-149 304.45,-155 304.45,-155 304.45,-167 304.45,-167 304.45,-173 298.45,-179 292.45,-179"/>
<text text-anchor="start" x="58.45" y="-162.8" font-family="Times,serif" font-size="14.00" fill="#ffffff">github.com/godepsresolve/plugin</text>
<text text-anchor="start" x="161.95" y="-152" font-family="Times,serif" font-size="10.00" fill="#ffffff">v1.0.0</text>
</g>
<!-- github.com/godepsresolve/mainservice_replace_fork&#45;&gt;github.com/godepsresolve/plugin -->
<g id="edge4" class="edge">
<title>github.com/godepsresolve/mainservice_replace_fork&#45;&gt;github.com/godepsresolve/plugin</title>
<path fill="none" stroke="black" d="M266.53,-279.9C248.92,-256.6 217.25,-214.67 196.8,-187.61"/>
<polygon fill="black" stroke="black" points="199.41,-185.25 190.58,-179.39 193.82,-189.47 199.41,-185.25"/>
<text text-anchor="start" x="251.45" y="-254" font-family="Times,serif" font-size="10.00">v1.0.0</text>
</g>
<!-- github.com/godepsresolve/wraplib -->
<g id="node5" class="node">
<title>github.com/godepsresolve/wraplib</title>
<path fill="#9138ff" stroke="black" d="M617.95,-233C617.95,-233 378.95,-233 378.95,-233 372.95,-233 366.95,-227 366.95,-221 366.95,-221 366.95,-209 366.95,-209 366.95,-203 372.95,-197 378.95,-197 378.95,-197 617.95,-197 617.95,-197 623.95,-197 629.95,-203 629.95,-209 629.95,-209 629.95,-221 629.95,-221 629.95,-227 623.95,-233 617.95,-233"/>
<text text-anchor="start" x="374.95" y="-216.8" font-family="Times,serif" font-size="14.00" fill="#ffffff">github.com/godepsresolve/wraplib</text>
<text text-anchor="start" x="482.95" y="-206" font-family="Times,serif" font-size="10.00" fill="#ffffff">v1.0.0</text>
</g>
<!-- github.com/godepsresolve/mainservice_replace_fork&#45;&gt;github.com/godepsresolve/wraplib -->
<g id="edge5" class="edge">
<title>github.com/godepsresolve/mainservice_replace_fork&#45;&gt;github.com/godepsresolve/wraplib</title>
<path fill="none" stroke="black" d="M325.63,-279.92C359.84,-267.27 406.62,-249.96 442.88,-236.55"/>
<polygon fill="black" stroke="black" points="444.17,-239.81 452.34,-233.06 441.74,-233.24 444.17,-239.81"/>
<text text-anchor="start" x="401.45" y="-254" font-family="Times,serif" font-size="10.00">v1.0.0</text>
</g>
<!-- github.com/godepsresolve/plugin&#45;&gt;github.com/godepsresolve/corelib -->
<g id="edge6" class="edge">
<title>github.com/godepsresolve/plugin&#45;&gt;github.com/godepsresolve/corelib</title>
<path fill="none" stroke="black" d="M131.6,-142.89C85.25,-123.56 25.13,-91.54 60.45,-66.5"/>
<text text-anchor="start" x="89.45" y="-104.5" font-family="Times,serif" font-size="10.00">v1.2.0</text>
</g>
<!-- github.com/godepsresolve/wraplib&#45;&gt;github.com/godepsresolve/corelib -->
<g id="edge7" class="edge">
<title>github.com/godepsresolve/wraplib&#45;&gt;github.com/godepsresolve/corelib</title>
<path fill="none" stroke="black" d="M498.53,-196.99C497.76,-170.84 492.68,-120.5 466.45,-89 450.62,-69.99 428.22,-56.09 405.74,-46.05"/>
<polygon fill="black" stroke="black" points="407.04,-42.8 396.46,-42.12 404.3,-49.24 407.04,-42.8"/>
<text text-anchor="start" x="485.45" y="-104.5" font-family="Times,serif" font-size="10.00">v1.1.0</text>
</g>
<!-- github.com/godepsresolve/wraplib&#45;&gt;github.com/godepsresolve/helperlib -->
<g id="edge8" class="edge">
<title>github.com/godepsresolve/wraplib&#45;&gt;github.com/godepsresolve/helperlib</title>
<path fill="none" stroke="black" d="M470.01,-196.97C439.91,-178.94 392.25,-150.4 359.06,-130.53"/>
<polygon fill="black" stroke="black" points="360.49,-127.3 350.11,-125.16 356.89,-133.3 360.49,-127.3"/>
<text text-anchor="start" x="435.45" y="-158.5" font-family="Times,serif" font-size="10.00">v1.0.0</text>
</g>
</g>
</svg>
