<?xml version="1.0" encoding="UTF-8" standalone="no"?>
<!DOCTYPE svg PUBLIC "-//W3C//DTD SVG 1.1//EN"
 "http://www.w3.org/Graphics/SVG/1.1/DTD/svg11.dtd">
<!-- Generated by graphviz version 2.43.0 (0)
 -->
<!-- Title: gomodgraph Pages: 1 -->
<svg width="876pt" height="260pt"
 viewBox="0.00 0.00 876.00 260.00" xmlns="http://www.w3.org/2000/svg" xmlns:xlink="http://www.w3.org/1999/xlink">
<g id="graph0" class="graph" transform="scale(1 1) rotate(0) translate(4 256)">
<title>gomodgraph</title>
<polygon fill="white" stroke="transparent" points="-4,4 -4,-256 872,-256 872,4 -4,4"/>
<!-- github.com/godepsresolve/mainservice -->
<g id="node1" class="node">
<title>github.com/godepsresolve/mainservice</title>
<polygon fill="none" stroke="black" points="486,-252 235,-252 235,-216 486,-216 486,-252"/>
<text text-anchor="middle" x="360.5" y="-230.9" font-family="Times,serif" font-size="12.00">github.com/godepsresolve/mainservice</text>
</g>
<!-- github.com/godepsresolve/corelib@v1.2.0 -->
<g id="node2" class="node">
<title>github.com/godepsresolve/corelib@v1.2.0</title>
<polygon fill="green" stroke="black" points="269,-108 0,-108 0,-72 269,-72 269,-108"/>
<text text-anchor="middle" x="134.5" y="-86.9" font-family="Times,serif" font-size="12.00">github.com/godepsresolve/corelib@v1.2.0</text>
</g>
<!-- github.com/godepsresolve/mainservice&#45;&gt;github.com/godepsresolve/corelib@v1.2.0 -->
<g id="edge1" class="edge">
<title>github.com/godepsresolve/mainservice&#45;&gt;github.com/godepsresolve/corelib@v1.2.0</title>
<path fill="none" stroke="black" d="M235,-216.15C192.72,-207.78 152.84,-195.98 139.5,-180 125.44,-163.16 125.42,-137.68 128.2,-118.3"/>
<polygon fill="black" stroke="black" points="131.68,-118.7 129.96,-108.25 124.78,-117.49 131.68,-118.7"/>
</g>
<!-- github.com/godepsresolve/helperlib@v1.0.0 -->
<g id="node3" class="node">
<title>github.com/godepsresolve/helperlib@v1.0.0</title>
<polygon fill="green" stroke="black" points="580.5,-108 300.5,-108 300.5,-72 580.5,-72 580.5,-108"/>
<text text-anchor="middle" x="440.5" y="-86.9" font-family="Times,serif" font-size="12.00">github.com/godepsresolve/helperlib@v1.0.0</text>
</g>
<!-- github.com/godepsresolve/mainservice&#45;&gt;github.com/godepsresolve/helperlib@v1.0.0 -->
<g id="edge2" class="edge">
<title>github.com/godepsresolve/mainservice&#45;&gt;github.com/godepsresolve/helperlib@v1.0.0</title>
<path fill="none" stroke="black" d="M387.24,-215.83C399.47,-206.63 413.09,-194.26 421.5,-180 432.57,-161.23 437.23,-136.85 439.17,-118.35"/>
<polygon fill="black" stroke="black" points="442.67,-118.49 440.02,-108.23 435.69,-117.9 442.67,-118.49"/>
</g>
<!-- github.com/godepsresolve/plugin@v1.0.0 -->
<g id="node4" class="node">
<title>github.com/godepsresolve/plugin@v1.0.0</title>
<polygon fill="green" stroke="black" points="412.5,-180 148.5,-180 148.5,-144 412.5,-144 412.5,-180"/>
<text text-anchor="middle" x="280.5" y="-158.9" font-family="Times,serif" font-size="12.00">github.com/godepsresolve/plugin@v1.0.0</text>
</g>
<!-- github.com/godepsresolve/mainservice&#45;&gt;github.com/godepsresolve/plugin@v1.0.0 -->
<g id="edge3" class="edge">
<title>github.com/godepsresolve/mainservice&#45;&gt;github.com/godepsresolve/plugin@v1.0.0</title>
<path fill="none" stroke="black" d="M340.72,-215.7C330.75,-206.97 318.49,-196.24 307.64,-186.75"/>
<polygon fill="black" stroke="black" points="309.88,-184.06 300.05,-180.1 305.27,-189.32 309.88,-184.06"/>
</g>
<!-- github.com/godepsresolve/wraplib@v1.0.0 -->
<g id="node5" class="node">
<title>github.com/godepsresolve/wraplib@v1.0.0</title>
<polygon fill="green" stroke="black" points="742,-180 469,-180 469,-144 742,-144 742,-180"/>
<text text-anchor="middle" x="605.5" y="-158.9" font-family="Times,serif" font-size="12.00">github.com/godepsresolve/wraplib@v1.0.0</text>
</g>
<!-- github.com/godepsresolve/mainservice&#45;&gt;github.com/godepsresolve/wraplib@v1.0.0 -->
<g id="edge4" class="edge">
<title>github.com/godepsresolve/mainservice&#45;&gt;github.com/godepsresolve/wraplib@v1.0.0</title>
<path fill="none" stroke="black" d="M420.12,-215.97C454.95,-206.01 499.08,-193.41 535.54,-182.99"/>
<polygon fill="black" stroke="black" points="536.96,-186.22 545.61,-180.11 535.04,-179.49 536.96,-186.22"/>
</g>
<!-- github.com/godepsresolve/corelib@v1.0.0 -->
<g id="node6" class="node">
<title>github.com/godepsresolve/corelib@v1.0.0</title>
<polygon fill="gray" stroke="black" points="575,-36 306,-36 306,0 575,0 575,-36"/>
<text text-anchor="middle" x="440.5" y="-14.9" font-family="Times,serif" font-size="12.00">github.com/godepsresolve/corelib@v1.0.0</text>
</g>
<!-- github.com/godepsresolve/helperlib@v1.0.0&#45;&gt;github.com/godepsresolve/corelib@v1.0.0 -->
<g id="edge5" class="edge">
<title>github.com/godepsresolve/helperlib@v1.0.0&#45;&gt;github.com/godepsresolve/corelib@v1.0.0</title>
<path fill="none" stroke="black" d="M440.5,-71.7C440.5,-63.98 440.5,-54.71 440.5,-46.11"/>
<polygon fill="black" stroke="black" points="444,-46.1 440.5,-36.1 437,-46.1 444,-46.1"/>
</g>
<!-- github.com/godepsresolve/plugin@v1.0.0&#45;&gt;github.com/godepsresolve/corelib@v1.2.0 -->
<g id="edge6" class="edge">
<title>github.com/godepsresolve/plugin@v1.0.0&#45;&gt;github.com/godepsresolve/corelib@v1.2.0</title>
<path fill="none" stroke="black" d="M244.78,-143.88C225,-134.39 200.23,-122.51 179.17,-112.42"/>
<polygon fill="black" stroke="black" points="180.63,-109.24 170.1,-108.07 177.6,-115.55 180.63,-109.24"/>
</g>
<!-- github.com/godepsresolve/wraplib@v1.0.0&#45;&gt;github.com/godepsresolve/helperlib@v1.0.0 -->
<g id="edge8" class="edge">
<title>github.com/godepsresolve/wraplib@v1.0.0&#45;&gt;github.com/godepsresolve/helperlib@v1.0.0</title>
<path fill="none" stroke="black" d="M565.14,-143.88C542.48,-134.26 514.03,-122.19 490.03,-112.01"/>
<polygon fill="black" stroke="black" points="491.31,-108.75 480.73,-108.07 488.57,-115.2 491.31,-108.75"/>
</g>
<!-- github.com/godepsresolve/corelib@v1.1.0 -->
<g id="node7" class="node">
<title>github.com/godepsresolve/corelib@v1.1.0</title>
<polygon fill="gray" stroke="black" points="868,-108 599,-108 599,-72 868,-72 868,-108"/>
<text text-anchor="middle" x="733.5" y="-86.9" font-family="Times,serif" font-size="12.00">github.com/godepsresolve/corelib@v1.1.0</text>
</g>
<!-- github.com/godepsresolve/wraplib@v1.0.0&#45;&gt;github.com/godepsresolve/corelib@v1.1.0 -->
<g id="edge7" class="edge">
<title>github.com/godepsresolve/wraplib@v1.0.0&#45;&gt;github.com/godepsresolve/corelib@v1.1.0</title>
<path fill="none" stroke="black" d="M636.81,-143.88C653.7,-134.64 674.75,-123.13 692.88,-113.21"/>
<polygon fill="black" stroke="black" points="694.97,-116.06 702.07,-108.19 691.61,-109.92 694.97,-116.06"/>
</g>
</g>
</svg>
